# xmcd CD database file
#
# Track frame offsets:
#	182
#	11275
#	24895
#	38135
#	53625
#	68352
#	81835
#	96317
#	110137
#	124015
#
# Disc length: 1833 seconds
#
# Revision: 0
# Processed by: cddbd v1.5.2PL0 Copyright (c) Steve Scherf et al.
# Submitted via: CDex 1.51
#
DISCID=7007270a
DTITLE=Merle Haggard - Blue Jungle
DYEAR=1900
DGENRE=Country
TTITLE0=Blue Jungle
TTITLE1=Sometimes I Dream
TTITLE2=My Home Is In The Street
TTITLE3=When It Rains It Pours
TTITLE4=Me And Crippled Soldiers
TTITLE5=Under The Bridge
TTITLE6=Lucky Old Colorado
TTITLE7=Driftwood
TTITLE8=Never No Mo Blues
TTITLE9=A Bar In Bakersfield
EXTD=
EXTT0=
EXTT1=
EXTT2=
EXTT3=
EXTT4=
EXTT5=
EXTT6=
EXTT7=
EXTT8=
EXTT9=
PLAYORDER=
